<?xml version="1.0" standalone="no"?><!DOCTYPE svg PUBLIC "-//W3C//DTD SVG 1.1//EN" "http://www.w3.org/Graphics/SVG/1.1/DTD/svg11.dtd"><svg t="1563605059835" class="icon" viewBox="0 0 1024 1024" version="1.1" xmlns="http://www.w3.org/2000/svg" p-id="2957" width="128" height="128" xmlns:xlink="http://www.w3.org/1999/xlink"><defs><style type="text/css"></style></defs><path d="M946.269091 436.441212C913.532121 259.258182 806.94303 143.36 636.121212 86.574545c-9.464242-3.10303-14.429091-6.826667-16.290909-16.911515-3.258182-17.37697-9.309091-33.667879-23.893333-45.459394-23.893333-19.238788-63.301818-20.014545-89.987879-1.551515-15.670303 10.860606-24.669091 24.669091-20.945455 45.304243-9.774545 0.930909-18.46303 1.396364-27.151515 2.482424-108.140606 13.498182-201.076364 58.647273-274.46303 139.32606C79.127273 324.111515 43.442424 458.627879 74.938182 609.745455c20.48 98.210909 71.990303 179.044848 148.324848 244.208484 3.258182 2.792727 5.430303 7.602424 6.671515 11.791516 3.723636 11.791515 5.895758 24.203636 10.550303 35.529697 14.739394 36.150303 39.408485 60.353939 80.058182 64.698181 15.204848 1.706667 21.100606-3.258182 21.876364-18.46303 0.310303-6.671515 2.172121-13.34303 3.258182-20.169697 0.930909 0.155152 1.861818 0.310303 2.792727 0.310303 0.465455 2.327273 0.930909 4.499394 1.396364 6.826667 4.654545 25.910303 11.170909 50.889697 31.030303 69.973333 15.825455 15.36 49.958788 15.515152 65.939394 0.465455 11.326061-10.705455 9.929697-19.549091-3.878788-26.841212-5.740606-2.947879-11.946667-6.516364-15.825455-11.481213-2.637576-3.258182-1.551515-9.464242-2.172121-14.429091 4.654545-0.155152 9.309091-0.930909 13.653333-0.155151 2.01697 0.310303 3.723636 3.568485 5.12 5.740606 11.326061 16.290909 38.94303 20.169697 50.889697 6.671515 4.033939-4.499394 6.516364-7.13697 12.101818-2.01697 1.706667 1.551515 6.671515 0 10.084849-0.930909 6.516364-1.551515 12.877576-4.809697 19.549091-5.275151 60.509091-3.723636 118.070303-18.773333 172.06303-46.390303 176.872727-90.298182 273.687273-278.49697 237.847273-473.367273z m-389.12-21.410909c6.206061 1.241212 11.791515 3.258182 12.567273 13.808485-2.482424 2.792727-5.430303 8.688485-10.24 10.860606-8.067879 3.723636-17.221818 7.13697-25.910303 7.13697-8.067879 0-12.877576-10.705455-22.031516-11.170909-0.310303 0-0.620606-2.172121-0.465454-3.413334 1.861818-12.101818 5.12-23.58303 15.515151-31.495757 6.050909-4.654545 12.25697-3.878788 14.584243 3.258181 3.10303 8.22303 9.153939 9.774545 15.980606 11.015758zM485.624242 484.538182c10.860606-0.930909 13.498182 1.706667 8.843637 11.32606-2.947879 6.050909-6.981818 12.101818-11.946667 16.756364-5.895758 5.430303-12.722424 3.878788-16.44606-3.413333-2.637576-5.275152-6.206061-7.13697-11.791516-8.223031-4.809697-0.930909-12.722424-3.723636-13.032727-6.516363-0.775758-5.895758 0.775758-13.653333 4.344243-18.152727 8.067879-10.24 20.48-9.464242 33.667878-9.309091-1.086061 2.947879-1.551515 4.033939-1.861818 5.275151-0.775758 3.568485-1.241212 7.292121-2.01697 11.015758 3.413333 0.310303 6.826667 1.396364 10.24 1.241212z m9.619394-29.323637c0-2.01697 1.861818-4.033939 2.637576-5.275151 7.447273 0 16.756364 8.22303 15.515152 13.032727-0.620606 2.792727-3.723636 6.206061-6.361212 6.826667-5.12 1.241212-11.946667-7.602424-11.791516-14.584243zM455.214545 633.018182c9.619394-19.238788 31.340606-30.564848 52.286061-25.134546 16.911515 4.344242 33.512727 11.946667 49.027879 20.169697 12.722424 6.671515 12.877576 16.756364 2.482424 26.530909-33.82303 31.806061-74.317576 48.407273-121.018182 53.682425-0.620606-27.461818 5.585455-52.130909 17.221818-75.248485z m-111.864242 262.20606c-2.792727-3.10303-7.447273-6.050909-7.912727-9.464242-2.01697-14.894545-3.258182-29.944242-4.03394-44.993939-0.930909-17.532121-1.241212-34.909091-1.706666-52.441213-0.465455-15.204848-10.24-23.117576-22.49697-29.013333-4.499394-2.172121-9.619394-3.568485-14.273939-5.430303-0.155152-1.086061-0.310303-2.01697-0.465455-3.10303 9.774545-0.465455 19.549091-2.172121 29.013333-1.086061 8.378182 0.930909 13.963636 5.740606 14.584243 16.290909 2.637576 39.718788 6.361212 79.437576 9.464242 119.156364 0.465455 3.10303-1.241212 6.671515-2.172121 10.084848z m48.09697-414.409697c-8.067879 10.705455-17.842424 20.790303-23.583031 32.581819-16.756364 33.667879-22.807273 70.593939-27.151515 107.52-2.947879 24.824242-4.499394 49.803636-6.671515 75.558788-23.427879-6.206061-43.597576-17.842424-60.664242-34.598788-22.031515-21.566061-36.615758-47.631515-42.046061-77.730909-4.344242-24.979394-1.551515-49.493333 14.273939-70.904243 8.22303-11.170909 18.152727-16.756364 28.858182-16.135757-2.01697 4.189091-3.723636 7.912727-5.585454 11.32606-6.671515 11.636364-2.482424 23.117576 10.084848 27.61697 10.860606 3.723636 20.945455 2.947879 29.63394-5.12 9.619394-8.843636 10.24-20.324848 7.447272-31.961212-6.206061-25.910303-38.167273-38.167273-62.215757-23.427879-20.790303 12.877576-33.667879 32.426667-38.167273 56.164848-11.791515 60.974545 7.292121 111.864242 52.596364 153.6 17.532121 16.135758 37.391515 28.70303 59.112727 38.322425 2.327273 0.930909 4.499394 2.172121 6.206061 4.654545-15.204848 0.930909-30.564848 1.396364-45.614546 2.947879-15.204848 1.551515-29.323636 6.826667-41.580606 16.446061-11.636364 9.153939-17.842424 21.255758-18.152727 35.995151-0.465455 17.687273-0.155152 35.374545-0.155152 53.992727C121.638788 752.950303 39.563636 575.767273 97.590303 387.878788 160.581818 184.630303 352.504242 73.386667 532.48 86.109091c13.187879 77.420606 6.826667 153.910303-9.774545 230.4-0.310303-0.310303-1.241212-0.620606-1.396364-1.086061-12.25697-43.752727-42.201212-67.801212-85.488485-76.024242-24.513939-4.654545-49.027879-4.033939-71.990303 6.671515-42.511515 19.859394-67.646061 53.992727-72.145455 100.227879-4.809697 49.027879 19.083636 84.092121 61.750304 106.589091 11.481212 6.050909 24.048485 9.464242 35.995151 14.584242 3.10303 1.241212 5.585455 4.033939 8.378182 6.206061-2.172121 2.482424-4.499394 4.654545-6.361212 7.136969z m-0.310303-67.025454c-2.482424-16.601212-3.413333-17.066667-20.169697-17.532121-5.740606-0.155152-11.481212-0.775758-16.911515-2.482425-20.324848-6.050909-30.564848-20.48-28.703031-39.408484 2.327273-23.117576 14.273939-35.684848 36.150303-38.167273 3.878788-0.465455 7.757576-0.620606 11.636364-0.930909 12.877576 0.775758 17.687273 0.310303 22.49697-13.498182 6.826667-20.014545 26.686061-28.70303 47.941818-23.427879 19.393939 4.809697 30.564848 21.255758 28.70303 42.511515 0 0.310303 0 0.620606-0.155151 0.930909-5.12 16.135758-3.413333 27.306667 15.204848 35.219394 15.515152 6.516364 20.945455 25.444848 15.825455 43.287273-10.705455 37.081212-40.029091 56.475152-78.972122 49.18303-19.549091-3.258182-29.944242-15.670303-33.047272-35.684848z m124.276363 502.846061c-0.620606 4.499394-2.637576 8.688485-4.033939 13.032727-0.775758-0.155152-1.551515-0.465455-2.327273-0.620606 0.775758-4.964848 2.172121-9.774545 2.01697-14.739394-0.310303-26.530909 0.465455-53.21697-2.172121-79.592727-3.10303-30.409697-31.495758-51.975758-62.215758-50.424243-9.309091 0.465455-13.653333 6.050909-13.653333 17.687273 0 20.48 0.155152 41.115152 0.310303 61.595151 0 17.842424 0.155152 35.684848-0.155152 53.527273 0 3.258182-2.01697 6.516364-3.258182 9.619394-2.792727-1.861818-6.206061-3.413333-8.22303-5.895758-1.861818-2.327273-3.258182-5.895758-3.413333-8.998787-2.792727-44.06303-2.947879-88.126061 5.275151-131.878788 2.327273-12.722424 5.12-14.894545 17.532122-13.187879 25.134545 3.568485 47.010909 15.36 63.767272 33.512727 7.602424 8.378182 10.860606 22.031515 12.877576 33.978182 4.499394 27.61697 1.551515 55.078788-2.327273 82.385455z m419.684849-362.43394c-21.721212 228.38303-210.850909 379.810909-401.221818 387.723636 0-9.309091 0.155152-18.46303 0-27.772121-0.465455-28.392727-0.930909-56.785455-1.706667-85.178182-0.930909-25.289697-13.963636-44.683636-34.133333-57.871515-17.997576-11.791515-38.167273-20.48-57.406061-30.254545-2.482424-1.241212-5.275152-2.01697-8.067879-4.499394 53.372121-7.447273 100.538182-29.168485 144.290909-57.250909 7.292121 16.756364 13.653333 33.978182 22.186667 50.269091 33.202424 63.612121 90.14303 85.02303 156.082424 77.110303 46.545455-5.585455 83.161212-27.772121 110.157576-65.784243 12.25697-17.221818 19.393939-36.770909 21.876364-57.871515 2.01697-16.756364 3.723636-33.667879 4.964848-50.424242 0.310303-3.413333-2.327273-6.826667-3.568485-10.395152-2.792727 2.01697-6.206061 3.413333-8.378182 5.895758-26.530909 30.254545-58.026667 53.061818-97.900606 61.750303-11.636364 2.482424-24.203636 3.258182-35.995151 1.861818-28.082424-3.413333-43.287273-19.704242-44.99394-47.941818-1.706667-29.168485 3.10303-57.095758 25.910304-78.196364 14.429091-13.34303 31.650909-20.945455 51.975757-19.549091 15.36 1.086061 22.031515 9.929697 19.393939 25.134546-2.947879 17.221818-11.015758 32.116364-23.893333 43.752727-5.740606 5.12-14.273939 7.292121-21.255757 11.326061-2.947879 1.706667-5.275152 4.344242-7.757576 6.671515 2.172121 2.327273 3.878788 5.430303 6.671515 6.981818 14.894545 8.22303 31.030303 7.602424 46.855758 4.033939 45.614545-10.24 82.850909-34.443636 103.48606-76.644848 35.219394-71.990303-7.757576-150.49697-87.660606-164.460606-31.650909-5.585455-62.681212-4.189091-92.470303 8.998788-6.826667 3.10303-13.187879 7.292121-19.549091 11.32606-14.739394 9.153939-31.030303 13.653333-48.252121 13.498182-16.446061 0-26.375758-10.395152-30.875152-24.979394-3.258182-10.550303-5.895758-22.031515-5.12-32.892121 1.861818-29.168485 4.654545-58.33697 9.15394-87.350303 9.309091-61.284848 8.067879-122.259394-0.310303-183.389091-0.155152-1.396364-0.155152-2.947879-0.310303-5.275151 183.233939 50.889697 328.610909 233.192727 307.820606 451.64606z" fill="#8a8a8a" p-id="2958"></path><path d="M465.144242 416.581818c12.722424-10.084848 17.37697-35.684848 8.067879-49.027879-3.723636 37.701818-27.772121 48.872727-61.905454 47.010909 12.101818 13.187879 39.098182 13.653333 53.837575 2.01697zM379.500606 346.298182c-8.067879-0.155152-14.894545 6.671515-15.204848 14.739394-0.155152 8.533333 6.671515 15.825455 15.204848 15.670303 7.912727-0.155152 15.049697-7.292121 15.049697-15.204849-0.155152-7.757576-7.13697-15.049697-15.049697-15.204848zM436.130909 344.436364c8.533333 0.155152 15.049697-6.050909 15.36-14.584243 0.155152-8.533333-6.050909-15.049697-14.584242-15.204848-8.533333-0.155152-15.049697 6.050909-15.204849 14.584242-0.155152 8.533333 5.895758 15.049697 14.429091 15.204849zM908.101818 874.278788c-23.272727 0.155152-41.890909 18.928485-42.04606 42.201212-0.155152 23.58303 19.083636 42.666667 42.821818 42.356364 23.427879-0.155152 41.735758-18.773333 41.735757-42.201212 0-24.048485-18.618182-42.666667-42.511515-42.356364z m0.775758 79.127273c-20.014545 0.310303-36.926061-16.290909-36.926061-36.615758 0-20.48 16.290909-36.770909 36.615758-36.770909 20.324848 0 36.615758 16.601212 36.460606 36.926061 0 19.704242-16.135758 35.995152-36.150303 36.460606z" fill="#8a8a8a" p-id="2959"></path><path d="M930.598788 901.895758c-2.01697-9.309091-9.774545-10.860606-17.37697-11.326061-8.843636-0.620606-17.842424-0.155152-27.306666-0.155152v51.510303h10.395151v-20.945454c7.602424-2.172121 12.101818 0.155152 15.204849 6.050909 1.706667 3.413333 4.499394 6.361212 6.516363 9.774545 3.258182 5.585455 7.757576 7.13697 14.584243 4.344243-4.964848-7.292121-9.774545-14.273939-14.894546-21.721212 8.998788-3.10303 14.894545-7.757576 12.877576-17.532121z m-16.290909 10.550303c-5.430303 1.551515-11.170909 1.551515-17.687273 2.172121v-18.773334c6.050909 0.620606 12.25697 0.465455 17.687273 2.172122 2.482424 0.775758 5.275152 4.964848 5.585454 7.757575 0.155152 2.172121-3.258182 5.895758-5.585454 6.671516z" fill="#8a8a8a" p-id="2960"></path></svg>